<?xml version="1.0" encoding="utf-8"?>
<!-- Generator: Adobe Illustrator 27.8.0, SVG Export Plug-In . SVG Version: 6.00 Build 0)  -->
<svg version="1.1" id="Layer_1" xmlns="http://www.w3.org/2000/svg" xmlns:xlink="http://www.w3.org/1999/xlink" x="0px" y="0px"
	 viewBox="0 0 2552.6 1853.4" style="enable-background:new 0 0 2552.6 1853.4;" xml:space="preserve">
<style type="text/css">
	.st0{fill:none;stroke:#8C8C8C;stroke-width:15.3977;stroke-miterlimit:10;}
	.st1{display:none;fill:none;stroke:#8C8C8C;stroke-width:15.3977;stroke-miterlimit:10;}
	.st2{fill:#5D6069;}
	.st3{font-family:'ArialMT';}
	.st4{font-size:435.1978px;}
	.st5{fill:none;stroke:#5D6069;stroke-width:21.7298;stroke-miterlimit:10;}
	.st6{fill:#1DABBF;}
	.st7{fill:#FFFFFF;}
	.st8{fill:#0A5B5F;}
	.st9{fill:#C84F27;}
	.st10{fill:#C84F27;stroke:#FFFFFF;stroke-width:6.5542;stroke-miterlimit:10;}
	.st11{fill:#D69129;}
	.st12{fill:#D69129;stroke:#FFFFFF;stroke-width:10.1955;stroke-miterlimit:10;}
	.st13{fill:#DBB927;}
	.st14{fill:#E6B2CA;}
	.st15{fill:#D83A5F;}
	.st16{fill:#DC4C6E;}
	.st17{fill:#B12240;}
	.st18{fill:#CA5838;}
	.st19{fill:#BB3726;}
	.st20{fill:#84378B;}
	.st21{fill:#552669;}
	.st22{fill:#2A8E53;}
	.st23{fill:#94B33D;}
	.st24{fill:#75A03F;}
	.st25{fill:#A9B6BC;}
	.st26{fill:#77828A;}
	.st27{fill:#A3AAAF;}
	.st28{fill:#278041;}
	.st29{fill:#E57DA1;}
	.st30{fill:#D75669;}
	.st31{fill:#92283B;}
	.st32{fill:#A52D45;}
	.st33{fill:#992934;}
	.st34{fill:#90519C;}
	.st35{fill:#612B7D;}
	.st36{fill:#E0B135;}
	.st37{fill:#DAB526;}
	.st38{fill:#4DC7E4;}
</style>
<g id="Layer_1_00000113319473163751105410000007346637405110501000_">
</g>
<g id="Layer_2_00000183237837365092315810000000466773193004017334_">
</g>
<g id="Layer_4">
	<line class="st0" x1="1154.2" y1="204.2" x2="909.4" y2="385.2"/>
	<line class="st1" x1="1453.2" y1="427" x2="1232.9" y2="503.7"/>
	<line class="st0" x1="1687.7" y1="525.8" x2="1453.2" y2="427"/>
	<line class="st0" x1="2052.9" y1="512.1" x2="1545.2" y2="197.6"/>
	<line class="st1" x1="426.2" y1="1013.4" x2="747.7" y2="1080.3"/>
	<line class="st0" x1="828.5" y1="687.1" x2="1193.1" y2="916.7"/>
	<line class="st1" x1="628.4" y1="844.7" x2="948" y2="985.3"/>
	<line class="st1" x1="1504.7" y1="1080.3" x2="1193.1" y2="916.7"/>
	<line class="st1" x1="1466.3" y1="683.7" x2="1720.5" y2="879.2"/>
</g>
<g>
	<text transform="matrix(0.9996 0 0 1 1017.0959 1780.7881)" class="st2 st3 st4">Q1K</text>
</g>
<line class="st5" x1="1391" y1="1233.8" x2="1242.8" y2="1283.6"/>
<g>
	<line class="st0" x1="1214.7" y1="666.3" x2="819.4" y2="647.5"/>
	<line class="st0" x1="819.4" y1="647.5" x2="909.4" y2="385.2"/>
	<line class="st0" x1="615.3" y1="471.1" x2="824.1" y2="654.4"/>
	<line class="st0" x1="1149.8" y1="183.6" x2="1534.7" y2="196.6"/>
	<line class="st0" x1="1218.8" y1="508" x2="1149.8" y2="183.6"/>
	<line class="st0" x1="909.4" y1="385.2" x2="1218.8" y2="508"/>
	<line class="st0" x1="1214.7" y1="666.3" x2="909.4" y2="385.2"/>
	<line class="st0" x1="1451.1" y1="380.1" x2="1534.7" y2="196.6"/>
	<line class="st0" x1="615.3" y1="471.1" x2="909.4" y2="385.2"/>
	<line class="st0" x1="306.1" y1="662.8" x2="615.3" y2="471.1"/>
	<line class="st0" x1="414.1" y1="977.4" x2="306.1" y2="685.8"/>
	<line class="st0" x1="742.7" y1="1057" x2="936" y2="964.8"/>
	<line class="st0" x1="1149.8" y1="876.6" x2="936" y2="964.8"/>
	<line class="st0" x1="1463.1" y1="647.5" x2="1451.1" y2="380.1"/>
	<line class="st0" x1="1681.4" y1="491.8" x2="1463.1" y2="647.5"/>
	<line class="st0" x1="1338.2" y1="724" x2="1143.2" y2="879.3"/>
	<line class="st0" x1="1463.1" y1="647.5" x2="1338.2" y2="724"/>
	<line class="st0" x1="2043.9" y1="491.8" x2="1681.4" y2="491.8"/>
	<line class="st0" x1="2095" y1="748.6" x2="2043.9" y2="491.8"/>
	<line class="st0" x1="1698" y1="813.4" x2="2095" y2="748.6"/>
	<line class="st0" x1="1949.7" y1="1033.6" x2="1698" y2="813.4"/>
	<line class="st0" x1="1958" y1="1028.4" x2="1715.5" y2="1170.1"/>
	<line class="st0" x1="1499.6" y1="1062.8" x2="1463.1" y2="647.5"/>
	<line class="st0" x1="1098.2" y1="1144.3" x2="1499.6" y2="1062.8"/>
	<line class="st0" x1="882.3" y1="1195.9" x2="1098.2" y2="1144.3"/>
	<line class="st0" x1="742.7" y1="1057" x2="882.3" y2="1195.9"/>
	<line class="st0" x1="843.1" y1="1429.5" x2="885.2" y2="1199.5"/>
	<line class="st0" x1="936" y1="964.8" x2="1098.2" y2="1144.3"/>
	<line class="st0" x1="1242.8" y1="1283.6" x2="1098.2" y2="1144.3"/>
	<line class="st0" x1="843.9" y1="1413.2" x2="776.2" y2="1544"/>
	<line class="st0" x1="772.5" y1="1702.9" x2="776.2" y2="1544"/>
	<line class="st0" x1="652.6" y1="1554.9" x2="772.5" y2="1702.9"/>
	<line class="st0" x1="843.9" y1="1413.2" x2="944" y2="1586.9"/>
	<line class="st0" x1="414.1" y1="977.4" x2="824.1" y2="654.4"/>
</g>
<g>
	<path class="st6" d="M322.9,637.7c-8.1,4.8-17.4,7.6-27.5,7.6s-19.4-2.8-27.5-7.6c-41.4,11.9-71.7,50.1-71.7,95.3
		c0,2.8,0.1,5.7,0.4,8.4c26.9,22,61.3,35.2,98.8,35.2s71.9-13.2,98.8-35.2c0.2-2.8,0.4-5.6,0.4-8.4
		C394.5,687.8,364.3,649.7,322.9,637.7z"/>
	<g>
		<g>
			<path class="st6" d="M295.4,651.4c-33.2,0-60.2-27-60.2-60.2s27-60.2,60.2-60.2s60.2,27,60.2,60.2S328.6,651.4,295.4,651.4z"/>
			<g>
				<path class="st7" d="M295.4,537.1c29.9,0,54.1,24.2,54.1,54.1s-24.2,54.1-54.1,54.1c-29.9,0-54.1-24.2-54.1-54.1
					C241.3,561.4,265.5,537.1,295.4,537.1 M295.4,524.9c-36.6,0-66.3,29.7-66.3,66.3s29.7,66.3,66.3,66.3s66.3-29.7,66.3-66.3
					S331.9,524.9,295.4,524.9L295.4,524.9z"/>
			</g>
		</g>
	</g>
</g>
<g>
	<path class="st8" d="M440.4,958.6c-6.4,3.8-13.8,6-21.7,6c-7.9,0-15.3-2.2-21.7-6c-32.7,9.4-56.6,39.5-56.6,75.2
		c0,2.2,0.1,4.5,0.3,6.7c21.2,17.4,48.4,27.8,78,27.8c29.6,0,56.7-10.4,78-27.8c0.2-2.2,0.3-4.4,0.3-6.7
		C497,998.1,473.1,968,440.4,958.6z"/>
	<g>
		<g>
			<path class="st8" d="M418.7,969.4c-26.2,0-47.5-21.3-47.5-47.5c0-26.2,21.3-47.5,47.5-47.5c26.2,0,47.5,21.3,47.5,47.5
				C466.2,948,444.9,969.4,418.7,969.4z"/>
			<g>
				<path class="st7" d="M418.7,879.2c23.6,0,42.7,19.1,42.7,42.7c0,23.6-19.1,42.7-42.7,42.7c-23.6,0-42.7-19.1-42.7-42.7
					C376.1,898.3,395.2,879.2,418.7,879.2 M418.7,869.5c-28.8,0-52.3,23.5-52.3,52.3c0,28.9,23.5,52.3,52.3,52.3
					s52.3-23.5,52.3-52.3C471.1,893,447.6,869.5,418.7,869.5L418.7,869.5z"/>
			</g>
		</g>
	</g>
</g>
<g>
	<path class="st9" d="M628.9,461.1c-5.9,3.5-12.8,5.5-20.1,5.5s-14.2-2-20.1-5.5c-30.3,8.7-52.6,36.7-52.6,69.9
		c0,2.1,0.1,4.1,0.3,6.2c19.7,16.1,44.9,25.8,72.4,25.8s52.7-9.7,72.4-25.8c0.2-2,0.3-4.1,0.3-6.2
		C681.4,497.8,659.2,469.9,628.9,461.1z"/>
	<g>
		<ellipse class="st10" cx="608.7" cy="427" rx="39.6" ry="39.6"/>
	</g>
</g>
<g>
	<path class="st11" d="M955.4,333.6c-10.9,6.5-23.6,10.2-37.1,10.2c-13.6,0-26.2-3.8-37.1-10.2c-56,16.1-96.9,67.7-96.9,128.8
		c0,3.8,0.2,7.6,0.5,11.4c36.4,29.7,82.9,47.6,133.5,47.6c50.7,0,97.1-17.9,133.5-47.6c0.3-3.8,0.5-7.6,0.5-11.4
		C1052.3,401.2,1011.3,349.7,955.4,333.6z"/>
	<g>
		<ellipse class="st12" cx="918.2" cy="270.7" rx="73.1" ry="73.1"/>
	</g>
</g>
<g>
	<path class="st13" d="M1173.5,166.1c-6.7,3.9-14.4,6.3-22.7,6.3s-16.1-2.3-22.7-6.3c-34.3,9.9-59.4,41.5-59.4,78.9
		c0,2.4,0.1,4.7,0.3,7c22.3,18.2,50.8,29.2,81.8,29.2c31,0,59.5-10.9,81.8-29.2c0.2-2.3,0.3-4.6,0.3-7
		C1232.9,207.5,1207.8,175.9,1173.5,166.1z"/>
	<g>
		<g>
			<path class="st13" d="M1150.8,177.4c-27.5,0-49.8-22.4-49.8-49.8s22.4-49.8,49.8-49.8c27.5,0,49.8,22.4,49.8,49.8
				S1178.2,177.4,1150.8,177.4z"/>
			<g>
				<path class="st7" d="M1150.8,82.8c24.7,0,44.8,20,44.8,44.8s-20,44.8-44.8,44.8c-24.7,0-44.8-20-44.8-44.8
					C1106,102.8,1126,82.8,1150.8,82.8 M1150.8,72.6c-30.3,0-54.9,24.6-54.9,54.9s24.6,54.9,54.9,54.9s54.9-24.6,54.9-54.9
					S1181,72.6,1150.8,72.6L1150.8,72.6z"/>
			</g>
		</g>
	</g>
</g>
<g>
	<path class="st14" d="M1561.9,161.9c-4.9,2.9-10.6,4.6-16.7,4.6c-6.1,0-11.8-1.7-16.7-4.6c-25.2,7.2-43.6,30.5-43.6,58
		c0,1.7,0.1,3.4,0.2,5.1c16.4,13.4,37.3,21.4,60.1,21.4c22.8,0,43.7-8,60.1-21.4c0.1-1.7,0.2-3.4,0.2-5.1
		C1605.5,192.3,1587.1,169.1,1561.9,161.9z"/>
	<g>
		<g>
			<path class="st14" d="M1545.2,170.2c-20.2,0-36.6-16.4-36.6-36.6s16.4-36.6,36.6-36.6c20.2,0,36.6,16.4,36.6,36.6
				S1565.4,170.2,1545.2,170.2z"/>
			<g>
				<path class="st7" d="M1545.2,100.7c18.2,0,32.9,14.7,32.9,32.9s-14.7,32.9-32.9,32.9c-18.2,0-32.9-14.7-32.9-32.9
					S1527,100.7,1545.2,100.7 M1545.2,93.2c-22.2,0-40.3,18.1-40.3,40.3s18.1,40.3,40.3,40.3c22.2,0,40.3-18.1,40.3-40.3
					S1567.4,93.2,1545.2,93.2L1545.2,93.2z"/>
			</g>
		</g>
	</g>
</g>
<g>
	<path class="st15" d="M1485.4,360.7c-8.3,4.9-17.9,7.8-28.3,7.8s-20-2.9-28.3-7.8c-42.6,12.3-73.8,51.5-73.8,98.1
		c0,2.9,0.1,5.8,0.4,8.7c27.7,22.6,63.1,36.2,101.6,36.2c38.5,0,73.9-13.6,101.6-36.2c0.2-2.9,0.4-5.8,0.4-8.7
		C1559.1,412.2,1528,373,1485.4,360.7z"/>
	<g>
		<g>
			<ellipse class="st15" cx="1457.1" cy="312.9" rx="61.9" ry="61.9"/>
			<g>
				<path class="st7" d="M1457.1,257.3c30.7,0,55.6,24.9,55.6,55.6s-24.9,55.6-55.6,55.6c-30.7,0-55.6-24.9-55.6-55.6
					S1426.4,257.3,1457.1,257.3 M1457.1,244.7c-37.6,0-68.2,30.6-68.2,68.2s30.6,68.2,68.2,68.2c37.6,0,68.2-30.6,68.2-68.2
					S1494.7,244.7,1457.1,244.7L1457.1,244.7z"/>
			</g>
		</g>
	</g>
</g>
<g>
	<path class="st16" d="M1701.3,481.2c-5.8,3.4-12.6,5.5-19.9,5.5s-14-2-19.9-5.5c-29.9,8.6-51.9,36.2-51.9,68.9
		c0,2.1,0.1,4.1,0.3,6.1c19.5,15.9,44.3,25.5,71.5,25.5s52-9.6,71.5-25.5c0.2-2,0.3-4.1,0.3-6.1
		C1753.1,517.4,1731.2,489.8,1701.3,481.2z"/>
	<g>
		<g>
			<path class="st16" d="M1681.4,491.1c-24,0-43.5-19.5-43.5-43.5c0-24,19.5-43.5,43.5-43.5s43.5,19.5,43.5,43.5
				C1724.9,471.5,1705.4,491.1,1681.4,491.1z"/>
			<g>
				<path class="st7" d="M1681.4,408.4c21.6,0,39.1,17.5,39.1,39.1s-17.5,39.1-39.1,39.1s-39.1-17.5-39.1-39.1
					S1659.8,408.4,1681.4,408.4 M1681.4,399.6c-26.4,0-48,21.5-48,48c0,26.5,21.5,48,48,48s48-21.5,48-48
					C1729.4,421.1,1707.8,399.6,1681.4,399.6L1681.4,399.6z"/>
			</g>
		</g>
	</g>
</g>
<g>
	<path class="st17" d="M1481.7,637.9c-5.4,3.2-11.6,5-18.3,5s-12.9-1.9-18.3-5c-27.6,8-47.8,33.4-47.8,63.6c0,1.9,0.1,3.8,0.3,5.6
		c17.9,14.7,40.9,23.5,65.9,23.5c25,0,47.9-8.8,65.9-23.5c0.2-1.9,0.3-3.7,0.3-5.6C1529.5,671.3,1509.3,645.9,1481.7,637.9z"/>
	<g>
		<g>
			<ellipse class="st17" cx="1463.4" cy="606.9" rx="40.1" ry="40.1"/>
			<g>
				<path class="st7" d="M1463.4,570.8c19.9,0,36.1,16.1,36.1,36.1c0,19.9-16.1,36.1-36.1,36.1s-36.1-16.1-36.1-36.1
					C1427.3,587,1443.5,570.8,1463.4,570.8 M1463.4,562.7c-24.4,0-44.2,19.8-44.2,44.2s19.8,44.2,44.2,44.2s44.2-19.8,44.2-44.2
					C1507.6,582.5,1487.8,562.7,1463.4,562.7L1463.4,562.7z"/>
			</g>
		</g>
	</g>
</g>
<g>
	<path class="st18" d="M1336.2,683.7c-3.6,2.1-7.8,3.4-12.3,3.4c-4.5,0-8.7-1.3-12.3-3.4c-18.5,5.3-32.1,22.4-32.1,42.6
		c0,1.3,0.1,2.5,0.2,3.8c12,9.8,27.4,15.8,44.2,15.8c16.8,0,32.2-5.9,44.2-15.8c0.1-1.3,0.2-2.5,0.2-3.8
		C1368.2,706.1,1354.7,689.1,1336.2,683.7z"/>
	<g>
		<g>
			<ellipse class="st18" cx="1323.9" cy="662.9" rx="26.9" ry="26.9"/>
			<g>
				<path class="st7" d="M1323.9,638.7c13.4,0,24.2,10.8,24.2,24.2s-10.8,24.2-24.2,24.2c-13.4,0-24.2-10.8-24.2-24.2
					C1299.7,649.5,1310.5,638.7,1323.9,638.7 M1323.9,633.2c-16.4,0-29.7,13.3-29.7,29.7s13.3,29.7,29.7,29.7
					c16.4,0,29.7-13.3,29.7-29.7C1353.5,646.5,1340.2,633.2,1323.9,633.2L1323.9,633.2z"/>
			</g>
		</g>
	</g>
</g>
<g>
	<path class="st19" d="M1212.4,633.7c-3.9,2.3-8.5,3.7-13.3,3.7s-9.4-1.4-13.3-3.7c-20.1,5.8-34.8,24.3-34.8,46.2
		c0,1.4,0.1,2.7,0.2,4.1c13.1,10.7,29.7,17.1,47.9,17.1c18.2,0,34.8-6.4,47.9-17.1c0.1-1.4,0.2-2.7,0.2-4.1
		C1247.2,657.9,1232.5,639.5,1212.4,633.7z"/>
	<g>
		<g>
			<path class="st19" d="M1199.1,640.3c-16.1,0-29.2-13.1-29.2-29.2c0-16.1,13.1-29.2,29.2-29.2c16.1,0,29.2,13.1,29.2,29.2
				C1228.3,627.2,1215.2,640.3,1199.1,640.3z"/>
			<g>
				<path class="st7" d="M1199.1,584.9c14.5,0,26.2,11.7,26.2,26.2s-11.7,26.2-26.2,26.2s-26.2-11.7-26.2-26.2
					S1184.6,584.9,1199.1,584.9 M1199.1,579c-17.7,0-32.1,14.4-32.1,32.2c0,17.7,14.4,32.2,32.1,32.2c17.7,0,32.1-14.4,32.1-32.2
					C1231.2,593.4,1216.8,579,1199.1,579L1199.1,579z"/>
			</g>
		</g>
	</g>
</g>
<g>
	<path class="st20" d="M1210.5,835.9c-9.4,5.6-20.3,8.8-32,8.8s-22.6-3.2-32-8.8c-48.2,13.9-83.4,58.2-83.4,110.9
		c0,3.3,0.2,6.6,0.4,9.8c31.3,25.6,71.3,41,114.9,41c43.6,0,83.6-15.4,114.9-41c0.3-3.2,0.4-6.5,0.4-9.8
		C1293.9,894.1,1258.6,849.8,1210.5,835.9z"/>
	<g>
		<g>
			<ellipse class="st20" cx="1178.5" cy="781.8" rx="70" ry="70"/>
			<g>
				<path class="st7" d="M1178.5,718.8c34.7,0,62.9,28.2,62.9,62.9c0,34.8-28.2,62.9-62.9,62.9c-34.7,0-62.9-28.2-62.9-62.9
					C1115.6,747,1143.8,718.8,1178.5,718.8 M1178.5,704.6c-42.5,0-77.1,34.6-77.1,77.2c0,42.5,34.6,77.2,77.1,77.2
					s77.1-34.6,77.1-77.2C1255.6,739.2,1221,704.6,1178.5,704.6L1178.5,704.6z"/>
			</g>
		</g>
	</g>
</g>
<g>
	<path class="st21" d="M957.2,951c-4.8,2.9-10.5,4.6-16.5,4.6c-6,0-11.7-1.7-16.5-4.6c-24.9,7.2-43.1,30.1-43.1,57.3
		c0,1.7,0.1,3.4,0.2,5.1c16.2,13.2,36.9,21.2,59.4,21.2c22.6,0,43.2-7.9,59.4-21.2c0.1-1.7,0.2-3.4,0.2-5.1
		C1000.3,981.2,982.1,958.2,957.2,951z"/>
	<g>
		<g>
			<ellipse class="st21" cx="940.7" cy="923.1" rx="36.2" ry="36.2"/>
			<g>
				<path class="st7" d="M940.7,890.5c18,0,32.5,14.6,32.5,32.5c0,18-14.6,32.5-32.5,32.5c-18,0-32.5-14.6-32.5-32.5
					C908.1,905.1,922.7,890.5,940.7,890.5 M940.7,883.2c-22,0-39.9,17.9-39.9,39.9c0,22,17.9,39.9,39.9,39.9s39.9-17.9,39.9-39.9
					C980.5,901.1,962.6,883.2,940.7,883.2L940.7,883.2z"/>
			</g>
		</g>
	</g>
</g>
<g>
	<path class="st22" d="M752.5,1048.4c-3.7,2.2-8,3.5-12.6,3.5s-8.9-1.3-12.6-3.5c-19,5.5-32.9,22.9-32.9,43.7c0,1.3,0.1,2.6,0.2,3.9
		c12.3,10.1,28.1,16.1,45.3,16.1c17.2,0,32.9-6.1,45.3-16.1c0.1-1.3,0.2-2.6,0.2-3.9C785.3,1071.4,771.5,1053.9,752.5,1048.4z"/>
	<g>
		<g>
			<ellipse class="st22" cx="739.9" cy="1027.1" rx="27.6" ry="27.6"/>
			<g>
				<path class="st7" d="M739.9,1002.3c13.7,0,24.8,11.1,24.8,24.8c0,13.7-11.1,24.8-24.8,24.8s-24.8-11.1-24.8-24.8
					C715.1,1013.4,726.2,1002.3,739.9,1002.3 M739.9,996.7c-16.8,0-30.4,13.6-30.4,30.4c0,16.8,13.6,30.4,30.4,30.4
					s30.4-13.6,30.4-30.4C770.3,1010.4,756.7,996.7,739.9,996.7L739.9,996.7z"/>
			</g>
		</g>
	</g>
</g>
<g>
	<path class="st23" d="M911.8,1187.9c-8.2,4.9-17.8,7.7-28.1,7.7s-19.8-2.8-28.1-7.7c-42.3,12.2-73.3,51.2-73.3,97.4
		c0,2.9,0.1,5.8,0.4,8.6c27.5,22.5,62.7,36,101,36c38.3,0,73.4-13.5,101-36c0.2-2.8,0.4-5.7,0.4-8.6
		C985.1,1239.1,954.1,1200.1,911.8,1187.9z"/>
	<g>
		<g>
			<path class="st23" d="M883.7,1201.9c-33.9,0-61.5-27.6-61.5-61.5s27.6-61.5,61.5-61.5s61.5,27.6,61.5,61.5
				S917.6,1201.9,883.7,1201.9z"/>
			<g>
				<path class="st7" d="M883.7,1085.1c30.5,0,55.2,24.7,55.2,55.3c0,30.5-24.7,55.3-55.2,55.3c-30.5,0-55.2-24.7-55.2-55.3
					C828.5,1109.8,853.2,1085.1,883.7,1085.1 M883.7,1072.6c-37.4,0-67.8,30.4-67.8,67.8c0,37.4,30.4,67.8,67.8,67.8
					s67.8-30.4,67.8-67.8C951.5,1103,921.1,1072.6,883.7,1072.6L883.7,1072.6z"/>
			</g>
		</g>
	</g>
</g>
<g>
	<path class="st24" d="M867.3,1415c-5.6,3.3-12.2,5.3-19.2,5.3s-13.6-1.9-19.2-5.3c-28.9,8.3-50.1,35-50.1,66.6c0,2,0.1,3.9,0.3,5.9
		c18.8,15.4,42.8,24.6,69,24.6c26.2,0,50.2-9.2,69-24.6c0.2-1.9,0.3-3.9,0.3-5.9C917.4,1450,896.2,1423.3,867.3,1415z"/>
	<g>
		<g>
			<path class="st24" d="M848.1,1424.5c-23.2,0-42.1-18.9-42.1-42.1c0-23.2,18.9-42.1,42.1-42.1c23.2,0,42.1,18.9,42.1,42.1
				C890.1,1405.7,871.3,1424.5,848.1,1424.5z"/>
			<g>
				<path class="st7" d="M848.1,1344.7c20.9,0,37.8,16.9,37.8,37.8c0,20.9-16.9,37.8-37.8,37.8s-37.8-16.9-37.8-37.8
					C810.3,1361.6,827.2,1344.7,848.1,1344.7 M848.1,1336.1c-25.5,0-46.3,20.8-46.3,46.3c0,25.6,20.8,46.4,46.3,46.4
					c25.5,0,46.3-20.8,46.3-46.4C894.4,1356.9,873.6,1336.1,848.1,1336.1L848.1,1336.1z"/>
			</g>
		</g>
	</g>
</g>
<g>
	<path class="st25" d="M789.8,1558.4c-4.2,2.5-9,3.9-14.2,3.9c-5.2,0-10-1.4-14.2-3.9c-21.4,6.2-37,25.9-37,49.2
		c0,1.5,0.1,2.9,0.2,4.4c13.9,11.4,31.7,18.2,51,18.2c19.4,0,37.1-6.8,51-18.2c0.1-1.4,0.2-2.9,0.2-4.4
		C826.8,1584.2,811.2,1564.5,789.8,1558.4z"/>
	<g>
		<g>
			<path class="st25" d="M775.6,1565.5c-17.1,0-31.1-13.9-31.1-31.1c0-17.1,13.9-31.1,31.1-31.1c17.1,0,31.1,13.9,31.1,31.1
				C806.7,1551.5,792.8,1565.5,775.6,1565.5z"/>
			<g>
				<path class="st7" d="M775.6,1506.4c15.4,0,27.9,12.5,27.9,27.9s-12.5,27.9-27.9,27.9s-27.9-12.5-27.9-27.9
					C747.7,1518.9,760.2,1506.4,775.6,1506.4 M775.6,1500.1c-18.9,0-34.2,15.4-34.2,34.2c0,18.9,15.4,34.2,34.2,34.2
					c18.9,0,34.2-15.4,34.2-34.2C809.9,1515.5,794.5,1500.1,775.6,1500.1L775.6,1500.1z"/>
			</g>
		</g>
	</g>
</g>
<g>
	<path class="st26" d="M665.9,1545c-3.3,1.9-7,3-11.1,3c-4.1,0-7.8-1.1-11.1-3c-16.7,4.8-29,20.2-29,38.5c0,1.1,0.1,2.3,0.2,3.4
		c10.9,8.9,24.8,14.2,39.9,14.2s29-5.3,39.9-14.2c0.1-1.1,0.2-2.3,0.2-3.4C694.9,1565.2,682.6,1549.8,665.9,1545z"/>
	<g>
		<g>
			<path class="st26" d="M654.8,1550.5c-13.4,0-24.3-10.9-24.3-24.3s10.9-24.3,24.3-24.3c13.4,0,24.3,10.9,24.3,24.3
				C679.1,1539.6,668.2,1550.5,654.8,1550.5z"/>
			<g>
				<path class="st7" d="M654.8,1504.4c12.1,0,21.8,9.8,21.8,21.8s-9.8,21.8-21.8,21.8c-12.1,0-21.8-9.8-21.8-21.8
					S642.8,1504.4,654.8,1504.4 M654.8,1499.4c-14.8,0-26.8,12-26.8,26.8c0,14.8,12,26.8,26.8,26.8c14.8,0,26.8-12,26.8-26.8
					C681.6,1511.5,669.6,1499.4,654.8,1499.4L654.8,1499.4z"/>
			</g>
		</g>
	</g>
</g>
<g>
	<path class="st2" d="M779,1707.8c-4.2,2.5-9.1,3.9-14.3,3.9c-5.2,0-10.1-1.5-14.3-3.9c-21.6,6.2-37.4,26.1-37.4,49.7
		c0,1.5,0.1,2.9,0.2,4.4c14,11.5,32,18.4,51.5,18.4c19.5,0,37.5-6.9,51.5-18.4c0.1-1.5,0.2-2.9,0.2-4.4
		C816.4,1733.9,800.6,1714,779,1707.8z"/>
	<g>
		<g>
			<ellipse class="st2" cx="764.7" cy="1683.5" rx="31.4" ry="31.4"/>
			<g>
				<path class="st7" d="M764.7,1655.3c15.6,0,28.2,12.6,28.2,28.2c0,15.6-12.6,28.2-28.2,28.2s-28.2-12.6-28.2-28.2
					C736.5,1667.9,749.1,1655.3,764.7,1655.3 M764.7,1648.9c-19.1,0-34.6,15.5-34.6,34.6s15.5,34.6,34.6,34.6s34.6-15.5,34.6-34.6
					S783.7,1648.9,764.7,1648.9L764.7,1648.9z"/>
			</g>
		</g>
	</g>
</g>
<g>
	<path class="st27" d="M952.5,1572.8c-3.5,2.1-7.5,3.3-11.8,3.3s-8.4-1.2-11.8-3.3c-17.8,5.1-30.9,21.6-30.9,41
		c0,1.2,0.1,2.4,0.2,3.6c11.6,9.5,26.4,15.2,42.5,15.2c16.1,0,30.9-5.7,42.5-15.2c0.1-1.2,0.2-2.4,0.2-3.6
		C983.3,1594.3,970.3,1577.9,952.5,1572.8z"/>
	<g>
		<g>
			<ellipse class="st27" cx="940.7" cy="1552.8" rx="25.9" ry="25.9"/>
			<g>
				<path class="st7" d="M940.7,1529.5c12.9,0,23.3,10.4,23.3,23.3s-10.4,23.3-23.3,23.3s-23.3-10.4-23.3-23.3
					C917.4,1539.9,927.8,1529.5,940.7,1529.5 M940.7,1524.2c-15.7,0-28.5,12.8-28.5,28.5c0,15.7,12.8,28.5,28.5,28.5
					s28.5-12.8,28.5-28.5C969.2,1537,956.4,1524.2,940.7,1524.2L940.7,1524.2z"/>
			</g>
		</g>
	</g>
</g>
<g>
	<path class="st28" d="M1120.8,1129.8c-6.4,3.8-13.8,6-21.8,6c-8,0-15.4-2.2-21.8-6c-32.8,9.4-56.8,39.7-56.8,75.6
		c0,2.3,0.1,4.5,0.3,6.7c21.3,17.4,48.6,27.9,78.3,27.9c29.7,0,57-10.5,78.3-27.9c0.2-2.2,0.3-4.4,0.3-6.7
		C1177.6,1169.5,1153.6,1139.3,1120.8,1129.8z"/>
	<g>
		<g>
			<path class="st28" d="M1099,1140.7c-26.3,0-47.7-21.4-47.7-47.7c0-26.3,21.4-47.7,47.7-47.7c26.3,0,47.7,21.4,47.7,47.7
				C1146.7,1119.3,1125.3,1140.7,1099,1140.7z"/>
			<g>
				<path class="st7" d="M1099,1050.1c23.7,0,42.8,19.2,42.8,42.9c0,23.7-19.2,42.9-42.8,42.9c-23.7,0-42.8-19.2-42.8-42.9
					C1056.2,1069.3,1075.4,1050.1,1099,1050.1 M1099,1040.4c-29,0-52.6,23.6-52.6,52.6c0,29,23.6,52.6,52.6,52.6
					c29,0,52.6-23.6,52.6-52.6C1151.6,1064,1128,1040.4,1099,1040.4L1099,1040.4z"/>
			</g>
		</g>
	</g>
</g>
<g>
	<path class="st29" d="M2076.7,475.2c-6.9,4.1-15,6.5-23.7,6.5c-8.7,0-16.8-2.4-23.7-6.5c-35.7,10.3-61.9,43.2-61.9,82.3
		c0,2.5,0.1,4.9,0.3,7.3c23.2,19,52.9,30.4,85.3,30.4c32.3,0,62-11.4,85.3-30.4c0.2-2.4,0.3-4.8,0.3-7.3
		C2138.5,518.4,2112.4,485.5,2076.7,475.2z"/>
	<g>
		<g>
			<ellipse class="st29" cx="2052.9" cy="435" rx="51.9" ry="52"/>
			<g>
				<path class="st7" d="M2052.9,388.4c25.8,0,46.6,20.9,46.6,46.7c0,25.8-20.9,46.7-46.6,46.7c-25.8,0-46.6-20.9-46.6-46.7
					C2006.3,409.3,2027.2,388.4,2052.9,388.4 M2052.9,377.8c-31.5,0-57.2,25.7-57.2,57.2c0,31.6,25.7,57.2,57.2,57.2
					c31.6,0,57.2-25.7,57.2-57.2C2110.2,403.5,2084.5,377.8,2052.9,377.8L2052.9,377.8z"/>
			</g>
		</g>
	</g>
</g>
<g>
	<path class="st30" d="M2126.5,737.4c-7.9,4.7-17.1,7.4-26.9,7.4s-19-2.7-26.9-7.4c-40.5,11.7-70.1,49-70.1,93.3
		c0,2.8,0.1,5.5,0.4,8.3c26.3,21.5,60,34.5,96.6,34.5s70.3-12.9,96.6-34.5c0.2-2.7,0.4-5.5,0.4-8.3
		C2196.6,786.4,2167,749,2126.5,737.4z"/>
	<g>
		<g>
			<ellipse class="st30" cx="2099.6" cy="691.9" rx="58.9" ry="58.9"/>
			<g>
				<path class="st7" d="M2099.6,638.9c29.2,0,52.9,23.7,52.9,52.9c0,29.2-23.7,52.9-52.9,52.9c-29.2,0-52.9-23.7-52.9-52.9
					C2046.7,662.6,2070.4,638.9,2099.6,638.9 M2099.6,627c-35.8,0-64.9,29.1-64.9,64.9c0,35.8,29.1,64.9,64.9,64.9
					c35.8,0,64.9-29.1,64.9-64.9C2164.5,656.1,2135.4,627,2099.6,627L2099.6,627z"/>
			</g>
		</g>
	</g>
</g>
<g>
	<path class="st31" d="M1739.1,789c-9.7,5.7-21,9.1-33,9.1c-12.1,0-23.4-3.4-33-9.1c-49.8,14.3-86.2,60.2-86.2,114.6
		c0,3.4,0.2,6.8,0.5,10.1c32.4,26.5,73.7,42.4,118.8,42.4s86.4-15.9,118.8-42.4c0.3-3.3,0.5-6.7,0.5-10.1
		C1825.4,849.3,1788.9,803.4,1739.1,789z"/>
	<g>
		<g>
			<ellipse class="st31" cx="1706.1" cy="733.1" rx="72.4" ry="72.4"/>
			<g>
				<path class="st7" d="M1706.1,668c35.9,0,65,29.1,65,65c0,35.9-29.1,65-65,65s-65-29.1-65-65C1641.1,697.2,1670.2,668,1706.1,668
					 M1706.1,653.3c-44,0-79.7,35.8-79.7,79.8c0,44,35.8,79.8,79.7,79.8c44,0,79.7-35.8,79.7-79.8
					C1785.8,689.1,1750,653.3,1706.1,653.3L1706.1,653.3z"/>
			</g>
		</g>
	</g>
</g>
<g>
	<path class="st32" d="M1966.8,1023.6c-4.7,2.8-10.1,4.4-15.9,4.4s-11.2-1.6-15.9-4.4c-23.9,6.9-41.5,29-41.5,55.1
		c0,1.6,0.1,3.3,0.2,4.9c15.6,12.7,35.5,20.4,57.1,20.4s41.6-7.6,57.1-20.4c0.1-1.6,0.2-3.2,0.2-4.9
		C2008.3,1052.5,1990.8,1030.4,1966.8,1023.6z"/>
	<g>
		<g>
			<ellipse class="st32" cx="1950.9" cy="996.6" rx="34.8" ry="34.8"/>
			<g>
				<path class="st7" d="M1950.9,965.4c17.3,0,31.3,14,31.3,31.3c0,17.3-14,31.3-31.3,31.3s-31.3-14-31.3-31.3
					C1919.7,979.4,1933.7,965.4,1950.9,965.4 M1950.9,958.3c-21.1,0-38.3,17.2-38.3,38.4s17.2,38.4,38.3,38.4
					c21.1,0,38.3-17.2,38.3-38.4S1972.1,958.3,1950.9,958.3L1950.9,958.3z"/>
			</g>
		</g>
	</g>
</g>
<g>
	<path class="st33" d="M1730.6,1159.3c-5.2,3.1-11.3,4.9-17.8,4.9c-6.5,0-12.5-1.8-17.8-4.9c-26.8,7.7-46.3,32.4-46.3,61.6
		c0,1.8,0.1,3.7,0.3,5.5c17.4,14.2,39.6,22.8,63.9,22.8s46.5-8.5,63.9-22.8c0.1-1.8,0.3-3.6,0.3-5.5
		C1776.9,1191.6,1757.3,1167,1730.6,1159.3z"/>
	<g>
		<g>
			<path class="st33" d="M1712.8,1168.1c-21.5,0-38.9-17.5-38.9-38.9c0-21.5,17.4-38.9,38.9-38.9c21.5,0,38.9,17.5,38.9,38.9
				C1751.7,1150.6,1734.3,1168.1,1712.8,1168.1z"/>
			<g>
				<path class="st7" d="M1712.8,1094.2c19.3,0,34.9,15.6,34.9,35c0,19.3-15.6,35-34.9,35c-19.3,0-34.9-15.6-34.9-35
					C1677.9,1109.9,1693.5,1094.2,1712.8,1094.2 M1712.8,1086.3c-23.6,0-42.8,19.2-42.8,42.9s19.2,42.9,42.8,42.9
					c23.6,0,42.8-19.2,42.8-42.9S1736.4,1086.3,1712.8,1086.3L1712.8,1086.3z"/>
			</g>
		</g>
	</g>
</g>
<g>
	<path class="st34" d="M1540.1,1002.4c-10.4,6.2-22.5,9.8-35.4,9.8s-25-3.6-35.4-9.8c-53.4,15.4-92.4,64.5-92.4,122.9
		c0,3.7,0.2,7.3,0.5,10.9c34.7,28.4,79,45.4,127.3,45.4s92.6-17,127.3-45.4c0.3-3.6,0.5-7.2,0.5-10.9
		C1632.5,1066.9,1593.5,1017.7,1540.1,1002.4z"/>
	<g>
		<g>
			<ellipse class="st34" cx="1504.7" cy="942.4" rx="77.6" ry="77.6"/>
			<g>
				<path class="st7" d="M1504.7,872.7c38.5,0,69.7,31.2,69.7,69.7s-31.2,69.7-69.7,69.7c-38.5,0-69.7-31.2-69.7-69.7
					S1466.2,872.7,1504.7,872.7 M1504.7,856.9c-47.1,0-85.5,38.3-85.5,85.5c0,47.1,38.3,85.5,85.5,85.5s85.5-38.3,85.5-85.5
					C1590.2,895.3,1551.8,856.9,1504.7,856.9L1504.7,856.9z"/>
			</g>
		</g>
	</g>
</g>
<g>
	<path class="st35" d="M1410.5,1223.1c-3.8,2.3-8.2,3.6-13,3.6c-4.7,0-9.2-1.3-13-3.6c-19.6,5.6-33.9,23.7-33.9,45.1
		c0,1.3,0.1,2.7,0.2,4c12.7,10.4,29,16.7,46.7,16.7c17.7,0,34-6.2,46.7-16.7c0.1-1.3,0.2-2.7,0.2-4
		C1444.4,1246.8,1430.1,1228.8,1410.5,1223.1z"/>
	<g>
		<g>
			<ellipse class="st35" cx="1397.5" cy="1201.1" rx="28.5" ry="28.5"/>
			<g>
				<path class="st7" d="M1397.5,1175.6c14.1,0,25.6,11.4,25.6,25.6c0,14.1-11.4,25.6-25.6,25.6s-25.6-11.4-25.6-25.6
					C1372,1187,1383.4,1175.6,1397.5,1175.6 M1397.5,1169.8c-17.3,0-31.3,14.1-31.3,31.4c0,17.3,14.1,31.4,31.3,31.4
					c17.3,0,31.3-14.1,31.3-31.4C1428.9,1183.8,1414.8,1169.8,1397.5,1169.8L1397.5,1169.8z"/>
			</g>
		</g>
	</g>
</g>
<g>
	<path class="st29" d="M1257.5,1272.5c-4.9,2.9-10.7,4.6-16.8,4.6c-6.2,0-11.9-1.7-16.8-4.6c-25.4,7.3-43.9,30.7-43.9,58.4
		c0,1.7,0.1,3.5,0.2,5.2c16.5,13.5,37.5,21.6,60.5,21.6c22.9,0,44-8.1,60.5-21.6c0.1-1.7,0.2-3.4,0.2-5.2
		C1301.4,1303.2,1282.9,1279.8,1257.5,1272.5z"/>
	<g>
		<g>
			<ellipse class="st29" cx="1240.7" cy="1244" rx="36.8" ry="36.9"/>
			<g>
				<path class="st7" d="M1240.7,1210.9c18.3,0,33.1,14.8,33.1,33.1s-14.8,33.1-33.1,33.1s-33.1-14.8-33.1-33.1
					S1222.4,1210.9,1240.7,1210.9 M1240.7,1203.4c-22.4,0-40.6,18.2-40.6,40.6c0,22.4,18.2,40.6,40.6,40.6s40.6-18.2,40.6-40.6
					C1281.3,1221.6,1263.1,1203.4,1240.7,1203.4L1240.7,1203.4z"/>
			</g>
		</g>
	</g>
</g>
<g>
	<path class="st36" d="M1264.9,461c-7.1,4.2-15.3,6.7-24.2,6.7s-17.1-2.5-24.2-6.7c-36.4,10.5-63.1,44.1-63.1,83.9
		c0,2.5,0.1,5,0.3,7.4c23.7,19.4,54,31,87,31c33,0,63.3-11.6,87-31c0.2-2.4,0.3-4.9,0.3-7.4C1328,505,1301.4,471.5,1264.9,461z"/>
	<g>
		<g>
			<ellipse class="st36" cx="1240.7" cy="420" rx="53" ry="53"/>
			<g>
				<path class="st7" d="M1240.7,372.4c26.3,0,47.6,21.3,47.6,47.6c0,26.3-21.3,47.6-47.6,47.6s-47.6-21.3-47.6-47.6
					S1214.4,372.4,1240.7,372.4 M1240.7,361.6c-32.2,0-58.4,26.2-58.4,58.4s26.2,58.4,58.4,58.4s58.4-26.2,58.4-58.4
					S1272.9,361.6,1240.7,361.6L1240.7,361.6z"/>
			</g>
		</g>
	</g>
</g>
<g>
	<path class="st37" d="M847.3,642.7c-6,3.6-13,5.6-20.4,5.6c-7.5,0-14.4-2.1-20.4-5.6c-30.8,8.9-53.3,37.2-53.3,70.8
		c0,2.1,0.1,4.2,0.3,6.3c20,16.4,45.6,26.2,73.4,26.2c27.8,0,53.4-9.8,73.4-26.2c0.2-2.1,0.3-4.2,0.3-6.3
		C900.6,679.9,878.1,651.5,847.3,642.7z"/>
	<g>
		<g>
			<path class="st37" d="M826.9,652.8c-24.7,0-44.7-20.1-44.7-44.7c0-24.7,20.1-44.7,44.7-44.7c24.7,0,44.7,20.1,44.7,44.7
				C871.6,632.8,851.6,652.8,826.9,652.8z"/>
			<g>
				<path class="st7" d="M826.9,567.9c22.2,0,40.2,18,40.2,40.2c0,22.2-18,40.2-40.2,40.2c-22.2,0-40.2-18-40.2-40.2
					C786.7,585.9,804.7,567.9,826.9,567.9 M826.9,558.8c-27.2,0-49.3,22.1-49.3,49.3c0,27.2,22.1,49.3,49.3,49.3
					c27.2,0,49.3-22.1,49.3-49.3C876.2,580.9,854.1,558.8,826.9,558.8L826.9,558.8z"/>
			</g>
		</g>
	</g>
</g>
<g>
	<path class="st38" d="M659.3,780.1c-9.1,5.4-19.6,8.5-30.9,8.5s-21.8-3.1-30.9-8.5c-46.6,13.4-80.6,56.3-80.6,107.2
		c0,3.2,0.2,6.4,0.4,9.5c30.3,24.7,68.9,39.6,111.1,39.6c42.1,0,80.8-14.8,111.1-39.6c0.3-3.1,0.4-6.3,0.4-9.5
		C739.9,836.4,705.8,793.5,659.3,780.1z"/>
	<g>
		<g>
			<path class="st38" d="M628.4,795.5c-37.3,0-67.7-30.4-67.7-67.7c0-37.3,30.3-67.7,67.7-67.7s67.7,30.4,67.7,67.7
				C696.1,765.1,665.7,795.5,628.4,795.5z"/>
			<g>
				<path class="st7" d="M628.4,667c33.6,0,60.8,27.2,60.8,60.8s-27.2,60.8-60.8,60.8s-60.8-27.2-60.8-60.8
					C567.6,694.2,594.8,667,628.4,667 M628.4,653.2c-41.1,0-74.5,33.5-74.5,74.6c0,41.1,33.4,74.6,74.5,74.6s74.5-33.5,74.5-74.6
					C702.9,686.7,669.5,653.2,628.4,653.2L628.4,653.2z"/>
			</g>
		</g>
	</g>
</g>
</svg>
